<svg xmlns="http://www.w3.org/2000/svg" version="1.0" width="591.000000pt" height="357.000000pt" viewBox="0 0 591.000000 357.000000" preserveAspectRatio="xMidYMid meet">

<g transform="translate(0.000000,357.000000) scale(0.100000,-0.100000)" fill="#ffffff" stroke="none">
<path d="M5683 3443 c-20 -18 -124 -196 -286 -488 -271 -490 -356 -637 -389 -672 -11 -12 -41 -32 -66 -44 -54 -25 -135 -23 -193 5 -42 20 -490 469 -595 596 -104 125 -207 273 -259 371 -37 70 -51 89 -77 98 -46 16 -48 15 -48 -34 0 -49 -7 -38 528 -805 219 -313 236 -346 236 -450 0 -97 -22 -144 -151 -315 -264 -352 -387 -476 -728 -734 -119 -90 -120 -90 -139 -71 -11 11 -18 21 -15 23 2 2 102 86 222 186 l218 183 -44 38 c-26 24 -65 77 -98 135 -183 326 -448 543 -779 638 -163 47 -270 60 -490 61 -227 1 -298 -10 -440 -66 -367 -146 -699 -518 -796 -895 -23 -88 -25 -112 -21 -233 7 -206 61 -368 171 -518 25 -34 46 -65 46 -68 0 -3 -39 22 -87 56 -133 92 -126 92 -371 20 -289 -86 -628 -198 -682 -225 -25 -13 -75 -43 -112 -67 -56 -36 -65 -46 -57 -60 9 -17 117 -18 2035 -18 1770 0 2029 2 2054 15 15 8 44 41 63 72 43 70 73 99 202 195 387 290 574 705 575 1280 1 169 13 314 35 401 9 34 41 114 70 177 233 497 535 1166 535 1185 0 32 -10 55 -24 55 -6 0 -26 -12 -43 -27z m-3619 -1679 c205 -53 338 -201 400 -445 45 -177 43 -370 -5 -558 -22 -85 -104 -260 -144 -306 l-26 -30 19 40 c36 73 82 215 104 318 30 143 30 371 0 512 -59 274 -231 434 -468 435 -103 0 -159 -23 -232 -96 l-64 -64 86 -81 c138 -131 174 -230 143 -394 -31 -167 -105 -311 -177 -347 -40 -21 -111 -23 -176 -7 -65 17 -61 24 15 24 176 1 265 83 302 279 29 155 -17 325 -113 412 -32 28 -46 34 -84 34 -36 0 -92 -17 -112 -35 -2 -2 12 -39 32 -83 50 -116 54 -142 23 -195 -29 -50 -67 -87 -53 -52 56 139 46 187 -57 276 l-42 36 60 69 c145 166 237 236 350 264 52 14 155 11 219 -6z" fill="#ffffff"/>
</g>
</svg>