 <svg  version="1.0" xmlns="http://www.w3.org/2000/svg"  width="1500.000000pt" height="1500.000000pt" viewBox="0 0 1500.000000 1500.000000"  preserveAspectRatio="xMidYMid meet">  <g transform="translate(0.000000,1500.000000) scale(0.100000,-0.100000)" fill="#365537" stroke="none"> <path d="M11427 11379 c-31 -18 -124 -170 -303 -494 -12 -22 -51 -94 -86 -160 -87 -161 -169 -308 -178 -320 -5 -5 -32 -55 -60 -110 -29 -55 -67 -125 -85 -155 -18 -30 -58 -102 -89 -160 -31 -58 -82 -148 -113 -200 -31 -52 -80 -137 -110 -188 -150 -256 -268 -353 -427 -352 -132 2 -260 91 -576 402 -275 270 -676 715 -770 853 -19 28 -66 93 -105 145 -38 52 -115 167 -169 255 -55 88 -112 181 -129 208 -37 60 -71 65 -93 12 -19 -47 -18 -78 7 -128 28 -56 257 -396 425 -632 172 -241 225 -318 338 -485 80 -118 204 -295 297 -425 153 -214 189 -280 220 -410 23 -98 24 -179 3 -253 -27 -94 -101 -232 -164 -307 -33 -38 -84 -102 -113 -140 -29 -39 -60 -77 -68 -85 -8 -8 -52 -62 -99 -120 -46 -58 -111 -139 -144 -180 -63 -79 -183 -213 -301 -338 -76 -80 -97 -97 -410 -343 -339 -267 -439 -327 -474 -285 -12 14 -7 23 36 64 28 26 79 70 113 97 35 28 91 74 124 104 34 29 108 90 166 134 58 45 116 92 130 107 14 14 51 47 82 73 83 69 86 97 21 174 -73 86 -110 140 -223 328 -136 227 -318 445 -464 560 -120 93 -382 264 -456 298 -104 48 -436 153 -571 182 -202 42 -628 66 -839 46 -177 -17 -375 -59 -513 -107 -132 -47 -326 -154 -430 -238 -228 -183 -421 -365 -525 -495 -74 -94 -237 -331 -279 -407 -74 -136 -128 -302 -178 -546 -22 -114 -20 -315 6 -441 33 -162 45 -202 104 -357 54 -140 91 -209 140 -260 50 -52 64 -87 41 -96 -22 -8 -73 14 -112 48 -44 39 -139 80 -195 86 -51 5 -128 -15 -369 -92 -74 -24 -236 -74 -360 -111 -649 -193 -974 -325 -1104 -448 -36 -34 -38 -39 -24 -53 12 -13 56 -17 219 -24 112 -5 1667 -5 3454 -1 2596 6 3259 11 3293 21 36 11 64 36 182 166 77 84 193 199 258 256 64 56 119 105 122 108 3 3 39 33 80 67 41 33 98 83 125 110 63 62 242 283 305 377 79 117 210 389 236 491 7 28 27 95 44 150 93 301 115 493 135 1170 12 389 47 518 272 983 45 95 83 175 83 178 0 7 40 94 142 304 50 102 105 221 123 265 18 44 57 132 85 195 29 63 72 158 95 210 24 52 83 181 133 286 92 195 152 348 152 388 0 25 -28 56 -51 56 -8 0 -22 -5 -32 -11z m-6217 -2926 c112 -36 230 -99 312 -165 125 -101 151 -135 240 -308 69 -134 113 -252 135 -365 7 -38 18 -90 23 -115 14 -72 12 -349 -4 -426 -8 -38 -22 -114 -31 -169 -20 -125 -52 -235 -77 -266 l-19 -24 5 35 c3 19 10 73 16 120 5 47 16 108 22 135 20 78 16 549 -5 699 -10 65 -20 122 -23 127 -3 5 -9 35 -15 68 -18 115 -107 275 -212 384 -62 63 -101 96 -206 174 -9 7 -55 23 -101 35 -70 18 -113 22 -240 22 -142 0 -162 -2 -236 -27 -110 -37 -243 -142 -274 -217 -11 -27 -10 -34 13 -68 13 -20 54 -68 90 -107 37 -38 66 -73 67 -77 0 -16 -29 -7 -57 15 -44 37 -114 74 -161 87 -55 14 -102 0 -137 -41 -37 -45 -36 -137 4 -227 20 -46 32 -96 39 -157 10 -96 7 -115 -13 -115 -12 0 -25 61 -25 124 -1 67 -35 134 -104 205 -88 92 -89 101 -8 216 123 174 360 390 472 428 121 42 382 42 510 0z m-392 -697 c19 -43 51 -171 57 -231 3 -33 2 -89 -3 -125 l-9 -65 -2 80 c-1 44 -6 98 -11 120 -5 22 -14 63 -20 90 -6 28 -18 64 -25 80 -7 17 -17 42 -20 58 -6 22 -4 26 8 22 8 -4 19 -16 25 -29z m-180 -948 c-3 -7 -16 -19 -30 -28 -14 -8 -36 -22 -49 -31 -33 -23 -124 -43 -157 -34 -34 8 -16 19 47 29 24 4 56 13 72 21 15 8 37 15 47 15 10 0 27 9 37 20 20 22 39 27 33 8z m1138 -263 c-4 -14 -11 -25 -16 -25 -13 0 -13 12 1 47 13 32 24 15 15 -22z"/> </g> </svg> 