<svg xmlns="http://www.w3.org/2000/svg" xmlns:xlink="http://www.w3.org/1999/xlink" width="500" zoomAndPan="magnify" viewBox="0 0 375 374.999991" height="500" preserveAspectRatio="xMidYMid meet" version="1.0"><path fill="#fafafa" d="M 360.90625 81.828125 C 359.765625 82.488281 356.34375 88.082031 349.757812 100 C 349.316406 100.8125 347.882812 103.460938 346.59375 105.886719 C 343.394531 111.8125 340.378906 117.21875 340.046875 117.660156 C 339.863281 117.84375 338.871094 119.683594 337.839844 121.707031 C 336.773438 123.730469 335.375 126.304688 334.710938 127.410156 C 334.050781 128.511719 332.578125 131.164062 331.4375 133.296875 C 330.296875 135.429688 328.421875 138.742188 327.28125 140.652344 C 326.140625 142.566406 324.335938 145.695312 323.234375 147.570312 C 317.714844 156.988281 313.375 160.558594 307.523438 160.519531 C 302.667969 160.445312 297.960938 157.171875 286.332031 145.730469 C 276.214844 135.796875 261.464844 119.425781 258.003906 114.347656 C 257.304688 113.320312 255.578125 110.929688 254.144531 109.015625 C 252.746094 107.101562 249.910156 102.871094 247.925781 99.632812 C 245.902344 96.394531 243.804688 92.972656 243.179688 91.980469 C 241.816406 89.773438 240.566406 89.589844 239.757812 91.539062 C 239.058594 93.269531 239.09375 94.410156 240.015625 96.25 C 241.046875 98.308594 249.46875 110.816406 255.652344 119.5 C 261.980469 128.367188 263.929688 131.199219 268.085938 137.34375 C 271.027344 141.683594 275.589844 148.195312 279.011719 152.980469 C 284.640625 160.851562 285.964844 163.28125 287.105469 168.0625 C 287.953125 171.667969 287.988281 174.648438 287.214844 177.371094 C 286.222656 180.828125 283.5 185.90625 281.183594 188.664062 C 279.96875 190.0625 278.09375 192.417969 277.027344 193.816406 C 275.960938 195.25 274.820312 196.648438 274.523438 196.941406 C 274.230469 197.238281 272.609375 199.222656 270.882812 201.355469 C 269.191406 203.492188 266.796875 206.472656 265.585938 207.980469 C 263.265625 210.886719 258.851562 215.816406 254.511719 220.414062 C 251.714844 223.359375 250.941406 223.984375 239.425781 233.035156 C 226.953125 242.855469 223.277344 245.0625 221.988281 243.519531 C 221.546875 243.003906 221.730469 242.671875 223.3125 241.164062 C 224.34375 240.207031 226.21875 238.589844 227.46875 237.59375 C 228.757812 236.566406 230.816406 234.871094 232.03125 233.769531 C 233.28125 232.703125 236.003906 230.457031 238.140625 228.839844 C 240.273438 227.183594 242.40625 225.453125 242.921875 224.902344 C 243.4375 224.386719 244.796875 223.171875 245.9375 222.21875 C 248.992188 219.679688 249.101562 218.648438 246.710938 215.816406 C 244.027344 212.652344 242.664062 210.664062 238.507812 203.75 C 233.503906 195.398438 226.808594 187.378906 221.4375 183.144531 C 217.023438 179.726562 207.382812 173.433594 204.660156 172.183594 C 200.835938 170.417969 188.621094 166.554688 183.652344 165.488281 C 176.222656 163.941406 160.550781 163.058594 152.785156 163.792969 C 146.273438 164.421875 138.992188 165.964844 133.914062 167.730469 C 129.058594 169.460938 121.921875 173.398438 118.09375 176.488281 C 109.707031 183.21875 102.605469 189.914062 98.777344 194.699219 C 96.058594 198.15625 90.058594 206.875 88.515625 209.671875 C 85.792969 214.675781 83.804688 220.78125 81.964844 229.757812 C 81.15625 233.953125 81.230469 241.347656 82.1875 245.984375 C 83.402344 251.945312 83.84375 253.414062 86.011719 259.117188 C 88 264.269531 89.359375 266.804688 91.164062 268.683594 C 93.003906 270.597656 93.519531 271.882812 92.671875 272.214844 C 91.863281 272.507812 89.988281 271.699219 88.550781 270.449219 C 86.933594 269.015625 83.4375 267.503906 81.378906 267.285156 C 79.5 267.101562 76.667969 267.835938 67.800781 270.667969 C 65.078125 271.550781 59.121094 273.390625 54.558594 274.753906 C 30.679688 281.851562 18.722656 286.710938 13.941406 291.234375 C 12.617188 292.484375 12.542969 292.667969 13.058594 293.183594 C 13.5 293.664062 15.117188 293.808594 21.117188 294.066406 C 25.234375 294.25 82.445312 294.25 148.1875 294.105469 C 243.695312 293.882812 268.085938 293.699219 269.335938 293.332031 C 270.660156 292.925781 271.691406 292.007812 276.03125 287.226562 C 278.867188 284.132812 283.132812 279.902344 285.523438 277.804688 C 287.878906 275.746094 289.902344 273.945312 290.011719 273.832031 C 290.125 273.722656 291.449219 272.621094 292.957031 271.367188 C 294.464844 270.15625 296.5625 268.316406 297.554688 267.320312 C 299.871094 265.039062 306.457031 256.910156 308.777344 253.453125 C 311.683594 249.148438 316.5 239.140625 317.457031 235.386719 C 317.714844 234.359375 318.453125 231.894531 319.078125 229.871094 C 322.5 218.796875 323.308594 211.730469 324.042969 186.824219 C 324.484375 172.515625 325.773438 167.769531 334.050781 150.660156 C 335.707031 147.164062 337.105469 144.222656 337.105469 144.113281 C 337.105469 143.855469 338.574219 140.652344 342.328125 132.929688 C 344.167969 129.175781 346.191406 124.796875 346.851562 123.179688 C 347.515625 121.558594 348.949219 118.324219 349.980469 116.003906 C 351.046875 113.6875 352.628906 110.191406 353.476562 108.277344 C 354.359375 106.367188 356.527344 101.621094 358.367188 97.757812 C 361.753906 90.582031 363.960938 84.953125 363.960938 83.484375 C 363.960938 82.5625 362.929688 81.421875 362.085938 81.421875 C 361.789062 81.421875 361.273438 81.605469 360.90625 81.828125 Z M 132.183594 189.472656 C 136.304688 190.796875 140.644531 193.117188 143.664062 195.542969 C 148.261719 199.261719 149.21875 200.511719 152.492188 206.875 C 155.03125 211.804688 156.648438 216.148438 157.457031 220.304688 C 157.714844 221.703125 158.121094 223.613281 158.304688 224.535156 C 158.820312 227.183594 158.746094 237.375 158.15625 240.207031 C 157.863281 241.605469 157.347656 244.402344 157.015625 246.425781 C 156.28125 251.023438 155.105469 255.070312 154.183594 256.210938 L 153.484375 257.09375 L 153.667969 255.804688 C 153.78125 255.105469 154.039062 253.121094 154.257812 251.390625 C 154.441406 249.664062 154.847656 247.417969 155.066406 246.425781 C 155.804688 243.554688 155.65625 226.226562 154.882812 220.707031 C 154.515625 218.316406 154.148438 216.21875 154.039062 216.035156 C 153.925781 215.851562 153.707031 214.75 153.484375 213.535156 C 152.824219 209.304688 149.550781 203.417969 145.6875 199.40625 C 143.40625 197.089844 141.96875 195.875 138.109375 193.007812 C 137.777344 192.75 136.085938 192.160156 134.390625 191.71875 C 131.816406 191.054688 130.234375 190.910156 125.5625 190.910156 C 120.339844 190.910156 119.601562 190.984375 116.878906 191.902344 C 112.832031 193.261719 107.941406 197.125 106.800781 199.886719 C 106.394531 200.878906 106.429688 201.136719 107.277344 202.386719 C 107.757812 203.125 109.265625 204.890625 110.589844 206.324219 C 111.949219 207.722656 113.015625 209.007812 113.054688 209.15625 C 113.054688 209.746094 111.988281 209.414062 110.957031 208.605469 C 109.335938 207.242188 106.761719 205.882812 105.035156 205.402344 C 103.011719 204.890625 101.28125 205.402344 99.992188 206.914062 C 98.632812 208.566406 98.667969 211.953125 100.140625 215.265625 C 100.875 216.957031 101.316406 218.796875 101.574219 221.039062 C 101.941406 224.570312 101.832031 225.269531 101.097656 225.269531 C 100.65625 225.269531 100.175781 223.027344 100.175781 220.707031 C 100.140625 218.242188 98.890625 215.777344 96.351562 213.167969 C 93.113281 209.78125 93.078125 209.449219 96.058594 205.21875 C 100.582031 198.820312 109.300781 190.871094 113.421875 189.472656 C 117.875 187.929688 127.476562 187.929688 132.183594 189.472656 Z M 117.761719 215.117188 C 118.460938 216.699219 119.640625 221.40625 119.859375 223.613281 C 119.96875 224.828125 119.933594 226.890625 119.75 228.214844 L 119.417969 230.605469 L 119.34375 227.660156 C 119.308594 226.042969 119.125 224.058594 118.941406 223.246094 C 118.757812 222.4375 118.425781 220.929688 118.203125 219.9375 C 117.984375 218.90625 117.542969 217.582031 117.285156 216.992188 C 117.027344 216.367188 116.660156 215.449219 116.546875 214.859375 C 116.328125 214.050781 116.402344 213.902344 116.84375 214.050781 C 117.136719 214.195312 117.542969 214.636719 117.761719 215.117188 Z M 111.140625 249.992188 C 111.03125 250.25 110.550781 250.691406 110.035156 251.023438 C 109.523438 251.316406 108.710938 251.832031 108.234375 252.164062 C 107.019531 253.011719 103.671875 253.746094 102.457031 253.414062 C 101.207031 253.121094 101.871094 252.714844 104.1875 252.347656 C 105.070312 252.199219 106.246094 251.871094 106.835938 251.574219 C 107.386719 251.28125 108.199219 251.023438 108.566406 251.023438 C 108.933594 251.023438 109.558594 250.691406 109.925781 250.289062 C 110.664062 249.476562 111.359375 249.292969 111.140625 249.992188 Z M 153.007812 259.667969 C 152.859375 260.183594 152.601562 260.589844 152.417969 260.589844 C 151.941406 260.589844 151.941406 260.148438 152.457031 258.859375 C 152.933594 257.683594 153.339844 258.308594 153.007812 259.667969 Z M 153.007812 259.667969 " fill-opacity="1" fill-rule="nonzero"/></svg>